{"title":"Dil Pardesi Ho Gaya 2013 Untouched WEBRip Punjabi XviD AC3-N3kr4","uid":10206439,"size":1641125024,"categoryP":"video","categoryS":"hd___movies","magnet":"?xt=urn:btih:2b98a6505e525554b6f07da2129e2be878d7d952&amp;dn=Dil+Pardesi+Ho+Gaya+2013+Untouched+WEBRip+Punjabi+XviD+AC3-N3kr4&amp;tr=udp%3A%2F%2Ftracker.openbittorrent.com%3A80&amp;tr=udp%3A%2F%2Fopen.demonii.com%3A1337&amp;tr=udp%3A%2F%2Ftracker.coppersurfer.tk%3A6969&amp;tr=udp%3A%2F%2Fexodus.desync.com%3A6969","seeders":0,"leechers":0,"uploader":"Falcon.G13","files":1,"time":1400854904,"description":" &lt;a href=&quot;http://i.imgur.com/3yBDAuI.jpg&quot; rel=&quot;nofollow&quot; target=&quot;_NEW&quot;&gt;http://i.imgur.com/3yBDAuI.jpg&lt;/a&gt; &lt;a href=&quot;\nhttp://i.imgur.com/LorZtGj.jpg&quot; rel=&quot;nofollow&quot; target=&quot;_NEW&quot;&gt;\nhttp://i.imgur.com/LorZtGj.jpg&lt;/a&gt; &lt;a href=&quot;\nhttp://i.imgur.com/lFGHlIJ.jpg&quot; rel=&quot;nofollow&quot; target=&quot;_NEW&quot;&gt;\nhttp://i.imgur.com/lFGHlIJ.jpg&lt;/a&gt; &lt;a href=&quot;\nhttp://i.imgur.com/e76Tray.jpg&quot; rel=&quot;nofollow&quot; target=&quot;_NEW&quot;&gt;\nhttp://i.imgur.com/e76Tray.jpg&lt;/a&gt; &lt;a href=&quot;\nhttp://i.imgur.com/HEKrhMK.jpg&quot; rel=&quot;nofollow&quot; target=&quot;_NEW&quot;&gt;\nhttp://i.imgur.com/HEKrhMK.jpg&lt;/a&gt; &lt;a href=&quot;\nhttp://i.imgur.com/Oka75RG.jpg&quot; rel=&quot;nofollow&quot; target=&quot;_NEW&quot;&gt;\nhttp://i.imgur.com/Oka75RG.jpg&lt;/a&gt;\n\nGeneral\nComplete name :Dil Pardesi Ho Gaya 2013 Untouched WEBRip Punjabi XviD-AC3.avi\nFormat : AVI\nFormat/Info : Audio Video Interleave\nFormat profile : OpenDML\nFile size : 1.53 GiB\nDuration : 2h 24mn\nOverall bit rate : 1 512 Kbps\nWriting application : Lavf54.63.104\n\nVideo\nID : 0\nFormat : xvid\nCodec ID : xvid\nDuration : 2h 24mn\nBit rate : 1 276 Kbps\nWidth : 720 pixels\nHeight : 304 pixels\nDisplay aspect ratio : 2.35:1\nFrame rate : 25.000 fps\nBits/(Pixel*Frame) : 0.233\nStream size : 1.29 GiB (84%)\n\nAudio\nID : 1\nFormat : AC-3\nFormat/Info : Audio Coding 3\nMode extension : CM (complete main)\nFormat settings, Endianness : Big\nCodec ID : 2000\nDuration : 2h 24mn\nBit rate mode : Constant\nBit rate : 224 Kbps\nChannel(s) : 2 channels\nChannel positions : Front: L R\nSampling rate : 48.0 KHz\nBit depth : 16 bits\nCompression mode : Lossy\nStream size : 232 MiB (15%)\nAlignment : Aligned on interleaves\nInterleave, duration : 32 ms (0.80 video frame)","torrent":{"xt":"urn:btih:2b98a6505e525554b6f07da2129e2be878d7d952","amp;dn":"Dil+Pardesi+Ho+Gaya+2013+Untouched+WEBRip+Punjabi+XviD+AC3-N3kr4","amp;tr":["udp%3A%2F%2Ftracker.openbittorrent.com%3A80","udp%3A%2F%2Fopen.demonii.com%3A1337","udp%3A%2F%2Ftracker.coppersurfer.tk%3A6969","udp%3A%2F%2Fexodus.desync.com%3A6969"],"infoHash":"2b98a6505e525554b6f07da2129e2be878d7d952","infoHashBuffer":{"type":"Buffer","data":[43,152,166,80,94,82,85,84,182,240,125,162,18,158,43,232,120,215,217,82]},"announce":[],"urlList":[]}}